<?xml version="1.0" encoding="utf-8"?>
<!-- Generator: Adobe Illustrator 27.0.0, SVG Export Plug-In . SVG Version: 6.00 Build 0)  -->
<svg version="1.1" id="Layer_1" xmlns="http://www.w3.org/2000/svg" xmlns:xlink="http://www.w3.org/1999/xlink" x="0px" y="0px"
	 viewBox="0 0 1000 1000" style="enable-background:new 0 0 1000 1000;" xml:space="preserve">
<style type="text/css">
	.st0{fill:#938E92;}
	.st1{fill:#0A9242;}
	.st2{fill:#FFFFFF;}
	.st3{fill:#F9C400;}
	.st4{fill:#FFFAFE;}
</style>
<g>
	<path class="st0" d="M578.36,71.6c0,0-24.14,35.45-26.4,52.05c-2.26,16.59,3.47,23.77,14.4,38.86
		c10.94,15.09,22.56,27.52,26.33,75.04c0,0,172.7-8.18,203.43,1.4c0,0-62.99,42.52-65.81,93.74s-77.62,94.46-77.62,94.46
		s95.58,68.42,37.47,244.48l-22.38-1.1l-25.7-27.12L485.39,537.77c0,0-49.81,112.07-264.96,49.81l188.86-130.75l24.21-105.15
		l69.41-252.91c0,0,38.34-39.03,61.94-39.03L578.36,71.6z"/>
	<g>
		<path class="st1" d="M655.66,663.25c-0.25-0.33-25.8-32.94-49.36-38.08c-1.82-0.4-3.9-0.8-6.32-1.26
			c-29.35-5.64-97.03-18.64-120.53-112.32c-6.05,8.13-18.17,22.53-37.29,37.03c-26.14,19.83-70.82,43.46-135.21,43.47
			c-0.01,0-0.02,0-0.02,0c-33.19,0-68.85-6.25-105.99-18.59l-7.36-2.44l66.55-38.76l0.29-0.11c1.16-0.44,28.69-11.33,33.98-57.73
			c4.43-38.91,35.06-61.83,50.08-70.85c-10.83-3.08-30.06-9.91-50.42-23.57c-28.1-18.86-63.54-54.81-72.76-119.04l-0.57-3.97
			l4.01-0.03c0.77-0.01,77.57-0.67,105.74-4.96c7.5-1.14,15.04-1.72,22.41-1.72c22.11,0,42.33,5.16,58.92,14.99
			c0.13-13.85,1.88-47.62,14.37-85.1c9.43-28.29,23.06-52.72,40.52-72.61c21.87-24.92,49.79-42.72,82.98-52.9l9.7-2.97l-5.8,8.32
			c-7.29,10.46-26.57,40.45-28.16,53.44c-2.54,20.83,6.2,42.68,15.64,49.26c7.63,5.32,15.72,20.37,20.62,38.36
			c2.89,10.62,6.77,30.17,3.4,50.27c14.65-8.12,52.4-23.5,128.08-23.5c20.22,0,42.03,1.12,64.84,3.34l10.67,1.04l-9.23,5.46
			c-0.42,0.25-42.44,25.83-56.01,84.85c-7.51,32.64-31.85,58.08-50.95,73.67c-14.13,11.54-27.3,19.41-34.41,23.33
			c9.59,6.59,30.23,23.19,46.03,52.62c12.21,22.74,18.92,48.43,19.96,76.36c1.29,34.73-6.24,73.04-22.39,113.86l-2.26,5.7
			L655.66,663.25z"/>
		<path class="st2" d="M550.71,58.04c0,0-26.72,38.31-28.76,55.02c-2.04,16.7,3.67,43.18,17.11,52.55
			c13.44,9.37,30.96,56.63,20.78,93.29c0,0,32.81-27.54,133.33-27.54c19,0,40.42,0.98,64.5,3.32c0,0-43.54,25.76-57.64,87.08
			c-14.1,61.32-88.92,97.5-88.92,97.5s117.34,64.89,47.32,241.84c0,0-26.27-33.88-51.38-39.35
			c-25.1-5.48-103.16-12.32-125.98-118.67c0,0-51.34,85.51-174.11,85.51c-30.47,0-65.32-5.26-104.9-18.41l59.58-34.71
			c0,0,30.62-11.25,36.25-60.62c5.62-49.37,56.25-72.49,56.25-72.49s-111.87-20-129.37-141.86c0,0,77.49-0.62,106.24-5
			c7.19-1.09,14.53-1.68,21.88-1.68c22.06,0,44.21,5.27,62.49,17.93C415.38,271.75,407.94,101.82,550.71,58.04 M568.06,45.4
			l-19.4,5.95c-33.83,10.37-62.29,28.52-84.59,53.94c-17.76,20.25-31.63,45.08-41.21,73.81c-11.13,33.39-13.84,63.92-14.42,80.35
			c-16.08-8.29-35.04-12.63-55.55-12.63c-7.55,0-15.27,0.59-22.94,1.76c-27.92,4.25-104.48,4.91-105.25,4.92l-8.01,0.06l1.14,7.93
			c4.14,28.86,13.81,54.61,28.74,76.52c11.96,17.56,27.28,32.68,45.53,44.93c16.78,11.26,32.84,17.97,44.25,21.8
			c-3.96,2.72-8.39,6.1-12.91,10.14c-18.78,16.8-30.02,37.27-32.52,59.19c-2.09,18.31-8.25,33.61-17.83,44.23
			c-6.94,7.69-13.41,10.43-13.9,10.63l-0.61,0.21l-0.47,0.3l-59.58,34.71l-13.4,7.8l14.72,4.89
			c37.49,12.45,73.53,18.76,107.11,18.76c28.82,0,56.2-4.64,81.38-13.78c20.19-7.33,39.01-17.56,55.94-30.4
			c15.59-11.83,26.64-23.63,33.61-32.14c10.5,36.76,29.19,64.65,55.66,83.03c24.72,17.16,50.42,22.1,65.77,25.05
			c2.39,0.46,4.46,0.86,6.23,1.24c22.3,4.87,47.09,36.49,47.34,36.81l7.52,9.68l4.51-11.4c16.33-41.27,23.95-80.05,22.63-115.28
			c-1.06-28.47-7.92-54.68-20.38-77.89c-13.98-26.04-31.74-42.3-42.67-50.61c7.61-4.46,18.59-11.51,30.18-20.98
			c12.32-10.06,22.78-20.78,31.08-31.87c10.54-14.07,17.62-28.79,21.06-43.73c6.89-29.97,21.27-50.8,32.12-63
			c11.83-13.31,22.18-19.57,22.28-19.63l18.26-10.92l-21.16-2.07c-22.92-2.23-44.85-3.36-65.18-3.36
			c-67.54,0-105.48,12.29-123.79,20.93c3.34-35.48-11.82-75.32-26.31-85.43c-4.8-3.34-8.93-10.35-11.64-19.72
			c-2.52-8.73-3.47-18.54-2.53-26.24c1.33-10.9,17.61-37.59,27.55-51.86L568.06,45.4L568.06,45.4z"/>
	</g>
	<g>
		<path class="st3" d="M525.4,313.86c0,0,17.06-41.22,19.9-78.18c2.84-36.96-11.37-55.08-19.9-61.12
			c-8.53-6.04-31.27-36.96-12.79-84.22c0,0-118.19,90.51-69.79,233.26c0,0-35.69-38.87-47.58-44.11
			c-11.89-5.23-32.83-13.32-69.46-7.14c-36.63,6.18-81.33,5.78-81.33,5.78s2.36,49.88,60.4,85.08s123.17,35.81,123.17,35.81
			S325.19,400.3,312.9,480.9c0,0,0.31,52.82-66.1,82.87c0,0,172.74,56.72,242.17-115.27c0,0,4.71,17.24,5.2,35.12
			c0.49,17.88,18.61,94.27,71,110.42c0,0,17.09,7.22,36.28,9.73c19.19,2.5,43.38,18.07,49.49,27.53c0,0,70.01-174.54-107.11-227.85
			c0,0,46.8,12.44,78.19-9.48c31.39-21.92,45.31-33.35,62.99-81.59s22.47-54.23,32.36-63.22c0,0-90.47-4.67-121.27,9.77
			C565.29,273.37,543.26,294.17,525.4,313.86z"/>
	</g>
	<path class="st4" d="M652.69,288.99c0,0-61.97,80.72-136.16,107.63c0,0,95.79,76.64,105.35,163.95c0,0-14.66,0-77.12-68.19
		c0,0-45.25-53.53-54.81-72.65c0,0-88.59,115.35-149.77,107.71c0,0,31.72-45.01,33.14-54.17c1.37-8.82,80.94-66.92,91.77-72.65
		c0,0-27.4-19.76-77.75-31.23c-50.35-11.47-73.93-47.16-78.39-52.9c0,0,18.48,4.46,37.6,1.27c19.12-3.19,76.04,16.73,123,47.8
		c0,0,4.46,0.64-1.91-30.59c-6.37-31.23-6.79-135.43,13.17-157.74c0,0,21.88,52.26,22.52,65.01c0.64,12.75,8.29,72.65-2.55,131.92
		C500.79,374.15,554.13,297.51,652.69,288.99z"/>
</g>
<g>
	<path class="st1" d="M162.26,902.14v-3.64l2.1-0.33c6.44-0.44,12.18-2.59,17.22-6.45c5.04-3.86,7.56-8.65,7.56-14.39V698.09
		c0-5.73-2.52-10.53-7.56-14.39c-5.04-3.86-10.78-6.12-17.22-6.78h-2.1v-3.64h2.1c4.48-0.22,8.89-0.33,13.23-0.33
		c4.34,0,8.89,0,13.65,0h61.74v3.97h-1.68c-6.44,0.66-12.11,2.87-17.01,6.61c-4.9,3.75-7.35,8.49-7.35,14.22v87.31l129.36-101.2
		c4.76-3.75,10.64-6.5,17.64-8.27c7-1.76,13.58-2.65,19.74-2.65c8.4,0,15.96,1.32,22.68,3.97c1.4,0.66,2.94,1.32,4.62,1.98
		c1.68,0.66,3.36,1.44,5.04,2.32c1.4,0.88,2.94,1.77,4.62,2.65c1.68,0.88,3.36,1.88,5.04,2.98l2.52,1.32l-30.66,21.5l-1.26-1.32
		c-1.4-1.1-2.8-2.15-4.2-3.14c-1.4-0.99-2.8-2.04-4.2-3.14c-1.4-0.88-2.66-1.71-3.78-2.48c-1.12-0.77-2.38-1.49-3.78-2.15
		c-2.52-1.1-5.32-1.98-8.4-2.65c-3.08-0.66-6.72-0.99-10.92-0.99c-10.08,0-18.76,2.87-26.04,8.6l-78.12,60.85l103.32,92.93
		c8.96,8.82,18.13,16.81,27.51,23.98c9.38,7.17,20.65,13.39,33.81,18.68l8.4,3.31H368.9L240.38,783.75l-13.44,10.58v83.34
		c0,5.74,2.45,10.47,7.35,14.22c4.9,3.75,10.57,5.84,17.01,6.28l1.68,0.33v3.64H162.26z"/>
	<path class="st1" d="M446.18,902.14v-3.64l2.1-0.33c6.44-0.44,12.18-2.59,17.22-6.45c5.04-3.86,7.56-8.65,7.56-14.39V698.09
		c0-5.73-2.52-10.53-7.56-14.39c-5.04-3.86-10.78-6.12-17.22-6.78h-2.1v-3.64h2.1c4.48-0.22,8.89-0.33,13.23-0.33
		c4.34,0,8.89,0,13.65,0h61.74v3.97h-1.68c-6.44,0.44-12.12,2.59-17.01,6.45c-4.9,3.86-7.35,8.66-7.35,14.39v179.91
		c0,5.74,2.45,10.47,7.35,14.22c4.9,3.75,10.57,5.84,17.01,6.28l1.68,0.33v3.64H446.18z"/>
	<path class="st1" d="M546.55,902.14v-3.64l2.1-0.33c6.44-0.44,12.18-2.59,17.22-6.45c5.04-3.86,7.56-8.65,7.56-14.39V698.09
		c0-5.73-2.52-10.58-7.56-14.55c-5.04-3.97-10.78-6.17-17.22-6.61h-2.1v-3.64h2.1c4.48-0.22,8.89-0.33,13.23-0.33
		c4.34,0,8.89,0,13.65,0h61.74v3.97h-1.68c-6.44,0.44-12.11,2.59-17.01,6.45c-4.9,3.86-7.35,8.66-7.35,14.39v86.65h160.44v-86.31
		c0-5.73-2.46-10.53-7.35-14.39c-4.9-3.86-10.57-6.12-17.01-6.78h-2.1v-3.64h2.1c4.48-0.22,8.89-0.33,13.23-0.33
		c4.34,0,8.75,0,13.23,0h62.16v3.97h-1.68c-6.44,0.44-12.11,2.59-17.01,6.45c-4.9,3.86-7.35,8.66-7.35,14.39v179.91
		c0,5.74,2.38,10.47,7.14,14.22c4.76,3.75,10.5,5.84,17.22,6.28l1.68,0.33v3.64h-90.72v-3.64l2.1-0.33
		c6.44-0.44,12.11-2.59,17.01-6.45c4.9-3.86,7.35-8.65,7.35-14.39v-86.65H611.23v86.65c0,5.74,2.45,10.53,7.35,14.39
		c4.9,3.86,10.57,6.01,17.01,6.45l1.68,0.33v3.64H546.55z"/>
</g>
</svg>
